<svg width="32" height="32" viewBox="0 0 32 32" fill="none" xmlns="http://www.w3.org/2000/svg">
<g id="iconmonstr-menu-circle-lined 1">
<path id="Vector" d="M16.0027 2.67334C23.36 2.67334 29.3333 8.64667 29.3333 16.0027C29.3333 23.36 23.36 29.3333 16.0027 29.3333C8.64667 29.3333 2.67334 23.36 2.67334 16.0027C2.67334 8.64667 8.64667 2.67334 16.0027 2.67334ZM16.0027 4.67334C9.74934 4.67334 4.67334 9.74934 4.67334 16.0027C4.67334 22.256 9.74934 27.3333 16.0027 27.3333C22.256 27.3333 27.3333 22.256 27.3333 16.0027C27.3333 9.74934 22.256 4.67334 16.0027 4.67334ZM22.6667 20.3333C22.6667 19.7813 22.2187 19.3333 21.6667 19.3333H10.3333C9.78134 19.3333 9.33334 19.7813 9.33334 20.3333C9.33334 20.8853 9.78134 21.3333 10.3333 21.3333H21.6667C22.2187 21.3333 22.6667 20.8853 22.6667 20.3333ZM22.6667 16.0027C22.6667 15.4507 22.2187 15.0027 21.6667 15.0027H10.3333C9.78134 15.0027 9.33334 15.4507 9.33334 16.0027C9.33334 16.5547 9.78134 17.0027 10.3333 17.0027H21.6667C22.2187 17.0027 22.6667 16.5547 22.6667 16.0027ZM22.6667 11.6667C22.6667 11.1147 22.2187 10.6667 21.6667 10.6667H10.3333C9.78134 10.6667 9.33334 11.1147 9.33334 11.6667C9.33334 12.2187 9.78134 12.6667 10.3333 12.6667H21.6667C22.2187 12.6667 22.6667 12.2187 22.6667 11.6667Z" fill="white"/>
</g>
</svg>
